<svg xmlns="http://www.w3.org/2000/svg" xmlns:xlink="http://www.w3.org/1999/xlink" width="17.142" height="17.147" viewBox="0 0 17.142 17.147"><defs><clipPath id="a"><rect width="17.142" height="17.147" fill="#d84a4a"/></clipPath></defs><g transform="translate(0 0)"><g transform="translate(0 0)" clip-path="url(#a)"><path d="M0,6.329V5.358c.027,0,.032-.025.035-.048A4.409,4.409,0,0,1,.2,4.56,4.257,4.257,0,0,1,4.825,1.612.358.358,0,0,0,5.18,1.48,4.563,4.563,0,0,1,7.859.062c.061-.01.134,0,.178-.062H9.042c.008.038.038.03.064.034.209.034.418.062.624.116a4.648,4.648,0,0,1,2.3,1.391.218.218,0,0,0,.231.078,3.8,3.8,0,0,1,1.479.032A4.283,4.283,0,0,1,14.96,9.572a.264.264,0,0,0-.157.27q.008,2.821,0,5.642a1.589,1.589,0,0,1-1.648,1.662q-4.588,0-9.175,0a1.606,1.606,0,0,1-1.641-1.669q0-2.821.007-5.642A.252.252,0,0,0,2.2,9.579,4.227,4.227,0,0,1,.127,6.87,2.744,2.744,0,0,0,0,6.329m8.564,6.922c1.763,0,3.527,0,5.29,0,.152,0,.181-.042.18-.185-.006-1.194,0-2.388-.005-3.582a.417.417,0,0,1,.147-.373,1.846,1.846,0,0,1,.262-.143A3.5,3.5,0,0,0,12.79,2.341c-.141,0-.161.031-.092.155a4.052,4.052,0,0,1,.418,1.087,3.365,3.365,0,0,1,.112,1.175.356.356,0,0,1-.365.3.366.366,0,0,1-.372-.3,1.919,1.919,0,0,1-.031-.3,3.737,3.737,0,0,0-.322-1.357,3.895,3.895,0,0,0-7.392.843c-.046.265-.038.534-.088.8a.367.367,0,0,1-.425.308c-.22-.028-.342-.21-.334-.481a4.583,4.583,0,0,1,.556-2.095c.06-.11.042-.141-.082-.139a5.381,5.381,0,0,0-.567.033A3.5,3.5,0,0,0,.783,5.9,3.42,3.42,0,0,0,2.8,9.012a.515.515,0,0,1,.328.521c-.011,1.183,0,2.366-.012,3.549,0,.14.037.174.175.174q2.636-.008,5.273,0m.009.779c-1.758,0-3.515,0-5.272,0-.159,0-.189.047-.186.193.01.418,0,.837,0,1.255A.822.822,0,0,0,4,16.368q4.578,0,9.155,0a.82.82,0,0,0,.877-.882c0-.43-.007-.859,0-1.289,0-.141-.034-.172-.172-.172-1.763.005-3.526,0-5.289,0" transform="translate(0 0)" fill="#d84a4a"/><path d="M24.554,16.01a3.006,3.006,0,0,1-.375,1.219,7.533,7.533,0,0,1-.847,1.3.39.39,0,1,1-.625-.461,10.006,10.006,0,0,0,.72-1.082A2.88,2.88,0,0,0,23.8,15.9a.344.344,0,0,1,.316-.3.374.374,0,0,1,.391.2.517.517,0,0,1,.05.207" transform="translate(-11.306 -7.801)" fill="#d84a4a"/><path d="M7.8,16.012a.394.394,0,0,1,.357-.411.362.362,0,0,1,.406.331A4.108,4.108,0,0,0,9.375,17.7c.092.139.2.266.293.407a.385.385,0,0,1-.627.447,7.344,7.344,0,0,1-.906-1.4A2.882,2.882,0,0,1,7.8,16.079c0-.022-.005-.045-.007-.067" transform="translate(-3.897 -7.8)" fill="#d84a4a"/><path d="M17.144,17.16c0,.368.006.736,0,1.1-.007.323-.233.5-.508.422a.383.383,0,0,1-.271-.4c-.006-.758-.007-1.515,0-2.273a.389.389,0,0,1,.4-.419.4.4,0,0,1,.379.442c.005.373,0,.747,0,1.12" transform="translate(-8.179 -7.799)" fill="#d84a4a"/></g></g></svg>