<svg xmlns="http://www.w3.org/2000/svg" width="34.999" height="30.202" viewBox="0 0 34.999 30.202"><g transform="translate(0.5 0.172)"><g transform="translate(0 0.325)"><path d="M9.05,24.195A13.62,13.62,0,0,1,4.3,16.874a.524.524,0,0,0-.405-.386,2.995,2.995,0,0,1,0-5.87.524.524,0,0,0,.405-.386A13.62,13.62,0,0,1,9.05,2.911,13.392,13.392,0,0,1,16.695.021C16.446.008,16.2,0,15.946,0A13.412,13.412,0,0,0,7.553,2.911,13.62,13.62,0,0,0,2.8,10.232a.524.524,0,0,1-.405.386,2.995,2.995,0,0,0,0,5.87.524.524,0,0,1,.405.386A13.62,13.62,0,0,0,7.553,24.2a13.412,13.412,0,0,0,8.393,2.911c.251,0,.5-.007.749-.021a13.392,13.392,0,0,1-7.644-2.89Z" transform="translate(1.048 1.051)" fill="#fc8e56" opacity="0.4"/><path d="M-1934.005-218.622a14.668,14.668,0,0,1-9.044-3.137,14.583,14.583,0,0,1-5.035-7.582,4.012,4.012,0,0,1-2.106-1.455,4.015,4.015,0,0,1-.81-2.428,4.062,4.062,0,0,1,2.916-3.883,14.589,14.589,0,0,1,5.035-7.582,14.667,14.667,0,0,1,9.043-3.137,14.584,14.584,0,0,1,4.725.784,14.56,14.56,0,0,1,4.317,2.352,14.586,14.586,0,0,1,5.035,7.578,4.062,4.062,0,0,1,2.929,3.887,4.064,4.064,0,0,1-2.929,3.888,14.587,14.587,0,0,1-5.035,7.578,14.557,14.557,0,0,1-4.317,2.352A14.582,14.582,0,0,1-1934.005-218.622Zm-6.059-10.881a.525.525,0,0,0-.525.525,6.607,6.607,0,0,0,3.294,5.705,6.6,6.6,0,0,0,3.294.883,6.593,6.593,0,0,0,3.294-.883,6.607,6.607,0,0,0,3.294-5.705.525.525,0,0,0-.524-.525.525.525,0,0,0-.525.525,5.554,5.554,0,0,1-2.769,4.8,5.547,5.547,0,0,1-2.77.742,5.544,5.544,0,0,1-2.769-.742,5.553,5.553,0,0,1-2.77-4.8A.525.525,0,0,0-1940.064-229.5Zm13.024-6.069a1.971,1.971,0,0,0-.757.15,1.975,1.975,0,0,0-1.222,1.83,1.984,1.984,0,0,0,1.98,1.979,1.975,1.975,0,0,0,1.829-1.222,1.975,1.975,0,0,0-.429-2.157A1.967,1.967,0,0,0-1927.04-235.572Zm-13.922-.48a1.97,1.97,0,0,0-.757.151,1.975,1.975,0,0,0-1.222,1.83,1.984,1.984,0,0,0,1.98,1.979,1.975,1.975,0,0,0,1.829-1.222,1.975,1.975,0,0,0-.429-2.157A1.967,1.967,0,0,0-1940.963-236.051Zm11.982-8.222a.52.52,0,0,0-.37.153l-2.694,2.694a.522.522,0,0,0-.113.571.522.522,0,0,0,.484.324.518.518,0,0,0,.371-.154l2.694-2.693a.527.527,0,0,0,0-.742A.523.523,0,0,0-1928.98-244.273Zm-3.885,0a.529.529,0,0,0-.371.154l-2.693,2.694a.522.522,0,0,0-.114.572.522.522,0,0,0,.484.323.518.518,0,0,0,.371-.154l2.694-2.693a.526.526,0,0,0,.136-.507.526.526,0,0,0-.371-.371A.521.521,0,0,0-1932.865-244.273Zm-3.885,0a.52.52,0,0,0-.37.153l-2.694,2.694a.522.522,0,0,0-.113.572.522.522,0,0,0,.484.323.525.525,0,0,0,.371-.154l2.693-2.693a.521.521,0,0,0,.154-.371.521.521,0,0,0-.154-.371A.52.52,0,0,0-1936.75-244.273Z" transform="translate(1951.001 247.827)" fill="#425966" stroke="rgba(0,0,0,0)" stroke-miterlimit="10" stroke-width="1"/></g></g></svg>