<svg xmlns="http://www.w3.org/2000/svg" xmlns:xlink="http://www.w3.org/1999/xlink" width="17.432" height="17.398" viewBox="0 0 17.432 17.398"><defs><clipPath id="a"><rect width="17.432" height="17.398" fill="#d84a4a"/></clipPath></defs><g transform="translate(0 0)"><g transform="translate(0 0)" clip-path="url(#a)"><path d="M8.723,0A8.7,8.7,0,1,1,0,8.687,8.72,8.72,0,0,1,8.723,0M.581,8.694A8.134,8.134,0,1,0,8.72.58,8.141,8.141,0,0,0,.581,8.694" transform="translate(0 0)" fill="#d84a4a"/><path d="M9.346,12.49c-.033,1.123-.068,2.245-.1,3.368a.55.55,0,1,0,1.1-.008c-.063-1.647-.131-3.294-.2-4.941-.022-.555-.044-1.11-.062-1.665a1.4,1.4,0,0,1,.57-1.21,1.428,1.428,0,0,0,.564-1.181c0-1.093,0-2.186,0-3.279,0-.135.031-.17.167-.167.418.008.418,0,.418.421,0,.3,0,.6,0,.906,0,.1.019.133.126.135a4.747,4.747,0,0,1,1.2.162c.107.03.138,0,.155-.1.034-.19.067-.38.114-.567a1.254,1.254,0,0,1,2.473.3c.006.616,0,1.232,0,1.848a.34.34,0,0,0,.088.242,5.46,5.46,0,0,1,.01,7.219.383.383,0,0,0-.1.275c0,.555.006,1.111,0,1.667a1.131,1.131,0,0,1-2.231.257,1.513,1.513,0,0,1-.018-.486c.007-.095-.018-.115-.11-.085a5.255,5.255,0,0,1-2.487.217c-.143-.022-.089.077-.092.133A1.138,1.138,0,0,1,9.79,17.037,1.12,1.12,0,0,1,8.668,15.96c-.009-.3,0-.6.018-.906a.234.234,0,0,0-.108-.225,5.374,5.374,0,0,1-2.291-4.694,5.218,5.218,0,0,1,1.294-3.3.589.589,0,0,0,.152-.419c-.007-.948,0-1.9-.006-2.845,0-.121.02-.164.154-.162.43.006.43,0,.43.427,0,1,0,1.993,0,2.989a1.467,1.467,0,0,0,.583,1.226,1.39,1.39,0,0,1,.552,1.2q-.047,1.621-.1,3.241h0m1.427-.411h0c.039,1,.08,1.992.115,2.987,0,.115.039.149.152.168a4.763,4.763,0,0,0,2.325-.193c.3-.1.3-.1.325-.434,0-.054.011-.108.015-.162.067-.928.132-1.855.2-2.782.01-.119-.027-.142-.135-.137-.163.009-.327.005-.49,0a.29.29,0,0,1-.324-.326,39.069,39.069,0,0,1,.18-5.444c.015-.1-.017-.138-.11-.161a6.119,6.119,0,0,0-1.075-.155c-.123-.008-.164.021-.162.153q.014.652,0,1.3a1.949,1.949,0,0,1-.752,1.559.946.946,0,0,0-.38.85c.043.923.073,1.847.109,2.77m4.511-1.8q0-2.79,0-5.581a.676.676,0,0,0-1.343-.139c-.063.3-.123.6-.176.905a33.318,33.318,0,0,0-.224,5.386c0,.082.025.1.1.1.175-.005.351,0,.526,0,.255,0,.367.114.349.37-.063.892-.131,1.783-.2,2.674-.045.62-.092,1.24-.131,1.861a.537.537,0,0,0,.337.564.555.555,0,0,0,.757-.559q0-2.79,0-5.581M8.715,14.2c0-.072,0-.113,0-.154.032-.959.065-1.918.1-2.877.02-.64.035-1.279.055-1.919a.8.8,0,0,0-.289-.708,2.106,2.106,0,0,1-.752-1.056A4.864,4.864,0,0,0,8.715,14.2m7.163-6.588v5.512a4.9,4.9,0,0,0,0-5.512" transform="translate(-3.082 -1.67)" fill="#d84a4a"/><path d="M11.98,5.021c0,.477,0,.955,0,1.432,0,.115-.025.151-.147.15-.437,0-.437,0-.437-.437,0-.863,0-1.727,0-2.591,0-.133.026-.172.166-.169.419.009.419,0,.419.419v1.2" transform="translate(-5.588 -1.67)" fill="#d84a4a"/><path d="M13.679,4.988c0-.477,0-.955,0-1.432,0-.118.03-.149.148-.148.436,0,.436,0,.436.438,0,.864,0,1.728,0,2.591,0,.136-.031.17-.167.167-.417-.008-.417,0-.417-.42v-1.2" transform="translate(-6.706 -1.671)" fill="#d84a4a"/></g></g></svg>